<?xml version="1.0" encoding="UTF-8" standalone="no"?>
<!-- Created with Inkscape (http://www.inkscape.org/) -->

<svg
   xmlns:dc="http://purl.org/dc/elements/1.1/"
   xmlns:cc="http://creativecommons.org/ns#"
   xmlns:rdf="http://www.w3.org/1999/02/22-rdf-syntax-ns#"
   xmlns:svg="http://www.w3.org/2000/svg"
   xmlns="http://www.w3.org/2000/svg"
   xmlns:sodipodi="http://sodipodi.sourceforge.net/DTD/sodipodi-0.dtd"
   xmlns:inkscape="http://www.inkscape.org/namespaces/inkscape"
   width="210mm"
   height="297mm"
   viewBox="0 0 210 297"
   version="1.1"
   id="svg8"
   inkscape:version="0.92.3 (2405546, 2018-03-11)"
   sodipodi:docname="quantum.svg">
  <sodipodi:namedview
     id="base"
     pagecolor="#ffffff"
     bordercolor="#666666"
     borderopacity="1.0"
     inkscape:pageopacity="0.0"
     inkscape:pageshadow="2"
     inkscape:zoom="2"
     inkscape:cx="400"
     inkscape:cy="680"
     inkscape:document-units="mm"
     inkscape:current-layer="layer1"
     showgrid="false"
     inkscape:window-width="1920"
     inkscape:window-height="1059"
     inkscape:window-x="0"
     inkscape:window-y="0"
     inkscape:window-maximized="1" />
  <defs
     id="defs2">
    <marker
       id="Arrow2Sstart"
       style="overflow:visible"
       orient="auto"
       refY="0"
       refX="0">
      <path
         id="path4476"
         style="font-size:12px;fill-rule:evenodd;stroke-width:0.625;stroke-linejoin:round"
         transform="matrix(0.3,0,0,0.3,-0.69,0)"
         d="M 8.7185878,4.0337352 L -2.2072895,0.016013256 L 8.7185884,-4.0017078 C 6.97309,-1.6296469 6.9831476,1.6157441 8.7185878,4.0337352 z " />
    </marker>
    <marker
       id="Arrow2Send"
       style="overflow:visible"
       orient="auto"
       refY="0"
       refX="0">
      <path
         id="path4473"
         style="font-size:12px;fill-rule:evenodd;stroke-width:0.625;stroke-linejoin:round"
         transform="matrix(-0.3,0,0,-0.3,0.69,0)"
         d="M 8.7185878,4.0337352 L -2.2072895,0.016013256 L 8.7185884,-4.0017078 C 6.97309,-1.6296469 6.9831476,1.6157441 8.7185878,4.0337352 z " />
    </marker>
    <marker
       id="Arrow2Mend"
       style="overflow:visible"
       orient="auto"
       refY="0"
       refX="0">
      <path
         id="path4479"
         style="font-size:12px;fill-rule:evenodd;stroke-width:0.625;stroke-linejoin:round"
         transform="scale(-0.6,-0.6)"
         d="M 8.7185878,4.0337352 L -2.2072895,0.016013256 L 8.7185884,-4.0017078 C 6.97309,-1.6296469 6.9831476,1.6157441 8.7185878,4.0337352 z " />
    </marker>
  </defs>
  <metadata
     id="metadata5">
    <rdf:RDF>
      <cc:Work
         rdf:about="">
        <dc:format>image/svg+xml</dc:format>
        <dc:type
           rdf:resource="http://purl.org/dc/dcmitype/StillImage" />
        <dc:title />
      </cc:Work>
    </rdf:RDF>
  </metadata>
  <g
     inkscape:label="Layer 1"
     inkscape:groupmode="layer"
     id="layer1">
    <path
       inkscape:connector-curvature="0"
       d="m 112.82294,121.15426 c -0.0161,-2.73081 -5.50087,-4.64031 -9.80249,-4.55679 -4.194451,0.0815 -7.088242,1.29061 -7.178987,2.58121 -0.09075,1.2906 2.555934,2.56053 6.815997,2.58121 4.15414,0.0202 10.16514,-1.32245 10.16947,-4.43645"
       style="fill:none;fill-rule:evenodd;stroke:#000000;stroke-width:0.52916667;stroke-linecap:butt;stroke-linejoin:miter;stroke-miterlimit:4;stroke-dasharray:none;stroke-opacity:1"
       id="path5497" />
    <path
       inkscape:connector-curvature="0"
       d="m 112.82294,117.48748 c -0.0161,-2.73081 -5.50087,-4.64031 -9.80249,-4.55678 -4.194451,0.0814 -7.088242,1.2906 -7.178987,2.5812 -0.09075,1.29061 2.555934,2.56053 6.815997,2.58121 4.15414,0.0202 10.16514,-1.32245 10.16947,-4.43645"
       style="fill:none;fill-rule:evenodd;stroke:#000000;stroke-width:0.52916667;stroke-linecap:butt;stroke-linejoin:miter;stroke-miterlimit:4;stroke-dasharray:none;stroke-opacity:1"
       id="path5509" />
    <path
       inkscape:connector-curvature="0"
       d="m 112.82294,113.82071 c -0.0161,-2.73081 -5.50087,-4.64032 -9.80249,-4.55679 -4.194451,0.0814 -7.088242,1.2906 -7.178987,2.5812 -0.09075,1.29061 2.555934,2.56053 6.815997,2.58121 4.15414,0.0202 10.16514,-1.32245 10.16947,-4.43645"
       style="fill:none;fill-rule:evenodd;stroke:#000000;stroke-width:0.52916667;stroke-linecap:butt;stroke-linejoin:miter;stroke-miterlimit:4;stroke-dasharray:none;stroke-opacity:1"
       id="path5511" />
    <path
       inkscape:connector-curvature="0"
       d="m 112.82294,110.15393 c -0.0161,-2.73081 -5.50087,-4.64032 -9.80249,-4.55679 -4.194451,0.0814 -7.088242,1.2906 -7.178987,2.58121 -0.09075,1.2906 2.555934,2.56052 6.815997,2.5812 4.15414,0.0202 10.16514,-1.32245 10.16947,-4.43645"
       style="fill:none;fill-rule:evenodd;stroke:#000000;stroke-width:0.52916667;stroke-linecap:butt;stroke-linejoin:miter;stroke-miterlimit:4;stroke-dasharray:none;stroke-opacity:1"
       id="path5513" />
    <path
       inkscape:connector-curvature="0"
       d="m 112.82294,106.48715 c -0.0161,-2.73081 -5.50087,-4.64032 -9.80249,-4.55679 -4.194451,0.0815 -7.088242,1.2906 -7.178987,2.58121 -0.09075,1.2906 2.555934,2.56053 6.815997,2.58121 4.15414,0.0202 10.16514,-1.32246 10.16947,-4.43646"
       style="fill:none;fill-rule:evenodd;stroke:#000000;stroke-width:0.52916667;stroke-linecap:butt;stroke-linejoin:miter;stroke-miterlimit:4;stroke-dasharray:none;stroke-opacity:1"
       id="path5515" />
    <ellipse
       style="opacity:1;vector-effect:none;fill:none;fill-opacity:1;stroke:#000000;stroke-width:0.52916664;stroke-linecap:butt;stroke-linejoin:miter;stroke-miterlimit:4;stroke-dasharray:none;stroke-dashoffset:0;stroke-opacity:0.98431373;paint-order:markers fill stroke"
       id="path1015"
       cx="105.37032"
       cy="135.27344"
       rx="8.6651039"
       ry="2.9765625" />
    <flowRoot
       xml:space="preserve"
       id="flowRoot1017"
       style="font-style:normal;font-variant:normal;font-weight:normal;font-stretch:normal;font-size:26.66666603px;line-height:1.25;font-family:'Alibaba Sans';-inkscape-font-specification:'Alibaba Sans';font-variant-ligatures:normal;font-variant-caps:normal;font-variant-numeric:normal;font-feature-settings:normal;text-align:start;letter-spacing:0px;word-spacing:0px;writing-mode:tb-rl;text-anchor:start;fill:#000000;fill-opacity:1;stroke:none"
       transform="matrix(0.26458333,0,0,0.26458333,54.636459,-0.39687496)"><flowRegion
         id="flowRegion1019"
         style="font-style:normal;font-variant:normal;font-weight:normal;font-stretch:normal;font-family:'Alibaba Sans';-inkscape-font-specification:'Alibaba Sans';writing-mode:tb-rl"><rect
           id="rect1021"
           width="37.5"
           height="43.5"
           x="173.5"
           y="356.51968"
           style="font-style:normal;font-variant:normal;font-weight:normal;font-stretch:normal;font-family:'Alibaba Sans';-inkscape-font-specification:'Alibaba Sans';writing-mode:tb-rl" /></flowRegion><flowPara
         id="flowPara1023">...</flowPara></flowRoot>    <flowRoot
       xml:space="preserve"
       id="flowRoot1017-6"
       style="font-style:normal;font-variant:normal;font-weight:normal;font-stretch:normal;font-size:26.66666603px;line-height:1.25;font-family:'Alibaba Sans';-inkscape-font-specification:'Alibaba Sans';font-variant-ligatures:normal;font-variant-caps:normal;font-variant-numeric:normal;font-feature-settings:normal;text-align:start;letter-spacing:0px;word-spacing:0px;writing-mode:tb-rl;text-anchor:start;fill:#000000;fill-opacity:1;stroke:none"
       transform="matrix(0.26458333,0,0,0.26458333,54.636458,29.236459)"><flowRegion
         id="flowRegion1019-7"
         style="font-style:normal;font-variant:normal;font-weight:normal;font-stretch:normal;font-family:'Alibaba Sans';-inkscape-font-specification:'Alibaba Sans';writing-mode:tb-rl"><rect
           id="rect1021-5"
           width="37.5"
           height="43.5"
           x="173.5"
           y="356.51968"
           style="font-style:normal;font-variant:normal;font-weight:normal;font-stretch:normal;font-family:'Alibaba Sans';-inkscape-font-specification:'Alibaba Sans';writing-mode:tb-rl" /></flowRegion><flowPara
         id="flowPara1023-3">...</flowPara></flowRoot>    <g
       transform="matrix(0.5,0,0,0.5,75.986083,63.364121)"
       id="g1075">
      <g
         style="font-style:normal;font-variant:normal;font-weight:normal;font-stretch:normal;letter-spacing:normal;word-spacing:normal;text-anchor:start;fill:none;fill-opacity:1;fill-rule:evenodd;stroke:#000000;stroke-linecap:butt;stroke-linejoin:miter;stroke-miterlimit:10.43299961;stroke-dasharray:none;stroke-dashoffset:0;stroke-opacity:1"
         id="content"
         transform="matrix(0.3,0,0,-0.3,-52.5,222.75)"
         xml:space="preserve"
         stroke-miterlimit="10.433"
         font-style="normal"
         font-variant="normal"
         font-weight="normal"
         font-stretch="normal"
         font-size-adjust="none"
         letter-spacing="normal"
         word-spacing="normal"><path
           style="fill:#000000;stroke-width:0"
           inkscape:connector-curvature="0"
           d="m 468.88,421.84 v 1.75 12.3 c 0,1.04 0,2.7 3.08,2.7 4.23,0 6.33,-1.75 6.33,-7.63 0,-6.43 -1.55,-7.37 -9.41,-7.37 v -1.75 h 1.78 l 7.48,-11.56 c 0.49,-0.8 1.69,-2.74 2.24,-3.49 l 1.3,1.16 -8.97,13.89 c 0.34,0.05 0.54,0.11 0.95,0.11 0.73,0 1.84,0.09 2.58,0.19 0.75,-1.19 6.14,-10.07 10.26,-14.19 h -4.82 l -1.3,-1.16 c 0.34,-0.59 0.5,-0.59 1.64,-0.59 h 6.87 c 0.91,0 1.66,0 1.66,0.89 0,0.41 -0.31,0.75 -0.75,0.86 -1.84,0.39 -4.28,3.69 -5.48,5.28 -0.35,0.48 -2.85,3.78 -6.18,9.16 4.43,0.79 8.72,2.68 8.72,8.62 h -1.75 c 0,-3.23 -1.5,-5.78 -6.62,-6.73 v 0 c 1.39,1.84 1.55,4.48 1.55,6.68 0,2.4 -0.3,5.04 -1.9,7.07 2.04,-0.44 6.97,-1.99 6.97,-7.02 h 1.75 c 0,6.92 -7.32,9.31 -13.2,9.31 H 458 c -0.89,0 -1.68,0 -1.68,-0.89 0,-0.84 0.95,-0.84 1.34,-0.84 2.84,0 3.09,-0.36 3.09,-2.84 v -24.97 l 1.74,-0.1 v 25.16 c 0,0.5 0,1.84 -0.39,2.75 h 5.67 c -0.64,-0.8 -0.64,-1.8 -0.64,-2.55 v -25.36 c 0,-0.5 0,-1.84 0.39,-2.73 h -5.42 c 0.39,0.89 0.39,2.28 0.39,2.73 l -1.74,0.1 c 0,-2.49 -0.25,-2.83 -3.09,-2.83 -0.39,0 -1.34,0 -1.34,-0.86 0,-0.89 0.79,-0.89 1.68,-0.89 h 13.66 c 0.89,0 1.64,0 1.64,0.89 0,0.86 -0.84,0.86 -1.39,0.86 -2.84,0 -3.03,0.39 -3.03,2.83 z"
           id="path1072" /></g>    </g>
    <g
       id="g1135"
       transform="matrix(0.5,0,0,0.5,76.853167,87.441204)">
      <g
         word-spacing="normal"
         letter-spacing="normal"
         font-size-adjust="none"
         font-stretch="normal"
         font-weight="normal"
         font-variant="normal"
         font-style="normal"
         stroke-miterlimit="10.433"
         xml:space="preserve"
         transform="matrix(0.3,0,0,-0.3,-52.5,222.75)"
         id="g1133"
         style="font-style:normal;font-variant:normal;font-weight:normal;font-stretch:normal;letter-spacing:normal;word-spacing:normal;text-anchor:start;fill:none;fill-opacity:1;fill-rule:evenodd;stroke:#000000;stroke-linecap:butt;stroke-linejoin:miter;stroke-miterlimit:10.43299961;stroke-dasharray:none;stroke-dashoffset:0;stroke-opacity:1"><path
           id="path1131"
           d="m 476.19,438.53 -1.73,0.06 v -27.86 c 0,-0.64 0,-1.89 0.43,-2.78 h -5.53 c 0.46,0.89 0.46,2.14 0.46,2.78 v 27.86 h 4.64 l 1.73,-0.06 c 6.53,-0.35 8.97,-4.58 9.17,-6.92 0.05,-0.75 0.1,-1.49 0.89,-1.49 0.91,0 0.91,0.84 0.91,1.78 v 6.63 c 0,1.75 -0.2,1.79 -1.7,1.79 l -0.05,-1.73 v -2.64 c -0.55,0.69 -1.69,1.78 -3.03,2.64 h 3.03 l 0.05,1.73 H 458.8 l 0.11,-1.73 h 2.98 c -1.25,-0.75 -2.29,-1.75 -2.98,-2.59 v 2.59 l -0.11,1.73 c -1.53,0 -1.64,-0.09 -1.64,-1.59 v -7.02 c 0,-0.79 0,-1.59 0.84,-1.59 0.86,0 0.91,0.89 0.91,0.99 0.2,4.14 3.94,7.12 9.17,7.42 v -27.69 c 0,-2.5 -0.2,-2.89 -3.34,-2.89 -0.6,0 -1.5,0 -1.5,-0.86 0,-0.89 0.8,-0.89 1.7,-0.89 h 14.44 c 0.91,0 1.66,0 1.66,0.89 0,0.86 -0.86,0.86 -1.41,0.86 -3.24,0 -3.44,0.34 -3.44,2.89 z"
           inkscape:connector-curvature="0"
           style="fill:#000000;stroke-width:0" /></g>    </g>
  </g>
</svg>
